<svg width="1200" height="1200" viewBox="0 0 1200 1200" fill="none" xmlns="http://www.w3.org/2000/svg">
  <rect width="1200" height="1200" rx="64" fill="#07111D"/>
  <rect x="28" y="28" width="1144" height="1144" rx="52" stroke="#F5C16A" stroke-width="12"/>
  <circle cx="600" cy="250" r="210" fill="url(#a)" fill-opacity="0.9"/>
  <circle cx="900" cy="920" r="210" fill="url(#b)" fill-opacity="0.55"/>
  <circle cx="300" cy="940" r="160" fill="url(#c)" fill-opacity="0.35"/>
  <path d="M600 164L783 259V440C783 608 692 742 600 804C508 742 417 608 417 440V259L600 164Z" fill="#0B1728" stroke="#F5C16A" stroke-width="10"/>
  <circle cx="600" cy="438" r="156" fill="#0F2237" stroke="#F7D7A0" stroke-width="8"/>
  <path d="M600 328L640 352L640 398L600 422L560 398V352L600 328Z" fill="#F5C16A"/>
  <path d="M560 398L520 422V468L560 492L600 468V422L560 398Z" fill="#E2A24C"/>
  <path d="M640 398L600 422V468L640 492L680 468V422L640 398Z" fill="#FFC978"/>
  <path d="M560 492L600 516L640 492V538L600 562L560 538V492Z" fill="#F5C16A"/>
  <path d="M482 685C541 644 659 644 718 685" stroke="#F5C16A" stroke-width="12" stroke-linecap="round"/>
  <circle cx="528" cy="655" r="16" fill="#F5C16A"/>
  <circle cx="672" cy="655" r="16" fill="#F5C16A"/>
  <path d="M182 186C282 118 423 86 600 86C777 86 918 118 1018 186" stroke="#F7D7A0" stroke-opacity="0.55" stroke-width="10" stroke-linecap="round"/>
  <path d="M160 1014C296 1074 443 1110 600 1110C757 1110 904 1074 1040 1014" stroke="#F7D7A0" stroke-opacity="0.35" stroke-width="10" stroke-linecap="round"/>
  <text x="120" y="1030" fill="#F7D7A0" font-family="Arial, sans-serif" font-size="42" font-weight="700">BRONZE PROPHET</text>
  <text x="120" y="1084" fill="#D4E0ED" font-family="Arial, sans-serif" font-size="28">World Cup Streak • X Layer On-Chain Proof</text>
  <defs>
    <linearGradient id="a" x1="390" y1="40" x2="810" y2="460" gradientUnits="userSpaceOnUse">
      <stop stop-color="#F5C16A"/>
      <stop offset="1" stop-color="#F97316"/>
    </linearGradient>
    <linearGradient id="b" x1="690" y1="710" x2="1110" y2="1130" gradientUnits="userSpaceOnUse">
      <stop stop-color="#FF9B63"/>
      <stop offset="1" stop-color="#F5C16A" stop-opacity="0"/>
    </linearGradient>
    <linearGradient id="c" x1="140" y1="780" x2="460" y2="1100" gradientUnits="userSpaceOnUse">
      <stop stop-color="#22D3EE"/>
      <stop offset="1" stop-color="#22D3EE" stop-opacity="0"/>
    </linearGradient>
  </defs>
</svg>
